<svg width="40" height="40" viewBox="0 0 40 40" fill="none" xmlns="http://www.w3.org/2000/svg">
<path d="M27.9449 29.1833L29.1871 27.9411C30.4081 26.7192 32.084 26.1201 33.8112 26.1356C35.6679 26.1511 37.5304 25.3303 38.784 23.6691C40.4053 21.5197 40.4053 18.4753 38.784 16.3259C37.5304 14.6647 35.6679 13.8431 33.8112 13.8594C32.084 13.8741 30.4089 13.275 29.1871 12.0531L27.944 10.8101C26.723 9.5891 26.124 7.91407 26.1386 6.18768C26.1549 4.33008 25.3333 2.46756 23.6721 1.21394C21.4689 -0.448865 18.3365 -0.396682 16.1814 1.32888C13.2714 3.65926 13.097 7.91977 15.6581 10.4816C16.8709 11.6945 18.4636 12.292 20.0531 12.2773C21.7762 12.261 23.448 12.8593 24.6665 14.0778L25.8672 15.2785C27.1078 16.5191 27.728 18.2186 27.7207 19.9735C27.7207 19.9898 27.7207 20.0061 27.7207 20.0224C27.728 21.7773 27.1078 23.476 25.8672 24.7174L24.7195 25.865C23.4789 27.1056 21.7794 27.7259 20.0245 27.7194C20.0082 27.7194 19.992 27.7194 19.9756 27.7194C18.2207 27.7259 16.5221 27.1064 15.2807 25.865L14.0849 24.6692C12.8639 23.4482 12.2648 21.7732 12.2794 20.0469C12.2958 18.1892 11.4742 16.3267 9.81297 15.0739C7.60975 13.4111 4.47733 13.4633 2.3222 15.188C-0.588519 17.5176 -0.762947 21.7789 1.79891 24.3408C3.01178 25.5537 4.60446 26.1511 6.19393 26.1365C7.91706 26.1201 9.58883 26.7176 10.8074 27.9362L12.0553 29.1841C13.2763 30.4051 13.8754 32.081 13.8616 33.8081C13.8453 35.6657 14.6669 37.5274 16.3281 38.7811C18.4775 40.4023 21.5219 40.4023 23.6713 38.7811C25.3325 37.5274 26.1541 35.665 26.1378 33.8081C26.124 32.0801 26.723 30.4051 27.9449 29.1833Z" fill="white"/>
</svg>
